<svg width="32" height="32" viewBox="0 0 32 32" fill="none" xmlns="http://www.w3.org/2000/svg">
  <path d="M16 4C9.37258 4 4 9.37258 4 16C4 22.6274 9.37258 28 16 28C22.6274 28 28 22.6274 28 16C28 9.37258 22.6274 4 16 4ZM16 6C21.5228 6 26 10.4772 26 16C26 21.5228 21.5228 26 16 26C10.4772 26 6 21.5228 6 16C6 10.4772 10.4772 6 16 6Z" fill="white"/>
  <path d="M16 9C15.4477 9 15 9.44772 15 10V16C15 16.5523 15.4477 17 16 17H22C22.5523 17 23 16.5523 23 16C23 15.4477 22.5523 15 22 15H17V10C17 9.44772 16.5523 9 16 9Z" fill="white"/>
  <path d="M10 16C10 15.4477 10.4477 15 11 15H13C13.5523 15 14 15.4477 14 16C14 16.5523 13.5523 17 13 17H11C10.4477 17 10 16.5523 10 16Z" fill="white"/>
  <path d="M19 20C19 19.4477 19.4477 19 20 19H22C22.5523 19 23 19.4477 23 20C23 20.5523 22.5523 21 22 21H20C19.4477 21 19 20.5523 19 20Z" fill="white"/>
  <path d="M11 19C10.4477 19 10 19.4477 10 20C10 20.5523 10.4477 21 11 21H16C16.5523 21 17 20.5523 17 20C17 19.4477 16.5523 19 16 19H11Z" fill="white"/>
</svg> 