<svg width="32" height="32" viewBox="0 0 32 32" fill="none" xmlns="http://www.w3.org/2000/svg">
  <path d="M16 6C12.8 6 10.8667 7.33333 10 10C11.0667 8.66667 12.2667 8.2 13.6 8.6C14.3262 8.83181 14.8476 9.36123 15.4239 9.94475C16.3725 10.9027 17.4621 12 20 12C23.2 12 25.1333 10.6667 26 8C24.9333 9.33333 23.7333 9.8 22.4 9.4C21.6738 9.16819 21.1524 8.63877 20.5761 8.05525C19.6275 7.09725 18.5379 6 16 6ZM10 12C6.8 12 4.86667 13.3333 4 16C5.06667 14.6667 6.26667 14.2 7.6 14.6C8.32619 14.8318 8.84762 15.3612 9.42391 15.9448C10.3725 16.9027 11.4621 18 14 18C17.2 18 19.1333 16.6667 20 14C18.9333 15.3333 17.7333 15.8 16.4 15.4C15.6738 15.1682 15.1524 14.6388 14.5761 14.0552C13.6275 13.0973 12.5379 12 10 12Z" fill="white"/>
</svg> 